<svg width="188" height="479" viewBox="0 0 188 479" fill="none" xmlns="http://www.w3.org/2000/svg">
<mask id="mask0_296_5387" style="mask-type:alpha" maskUnits="userSpaceOnUse" x="17" y="-111" width="171" height="590">
<path d="M171.773 364.642C173.215 364.642 175.415 365.894 178.374 368.398C181.372 370.902 182.87 372.856 182.87 374.26C180.784 377.902 179.74 379.97 179.74 380.463C179.74 380.805 180.973 381.943 183.44 383.878C185.906 385.813 187.139 387.387 187.139 388.601C187.139 389.588 186.551 391.314 185.374 393.78C184.122 396.36 183.117 397.65 182.358 397.65C179.854 395.715 177.938 394.198 176.61 393.097C173.309 390.366 171.659 388.753 171.659 388.26C171.773 387.994 172.494 386.667 173.822 384.276C174.884 382.341 175.415 381.127 175.415 380.634C175.415 380.217 173.973 378.813 171.09 376.423C168.244 373.994 166.822 372.42 166.822 371.699C168.794 366.994 170.445 364.642 171.773 364.642ZM83.9023 340.91C83.5229 339.886 83.3332 338.615 83.3332 337.097L83.3332 333.91L95.7967 333.91L95.9105 336.699C95.6449 338.596 95.3983 340.493 95.1707 342.39C94.981 344.894 95.2845 346.487 96.0813 347.17C97.0298 347.702 97.9593 347.929 98.8699 347.853C99.9322 347.891 100.786 346.677 101.431 344.211C102.417 342.276 104.087 341.309 106.439 341.309L108.26 341.309C114.065 341.309 122.791 345.748 134.439 354.626C142.217 361.759 147.832 367.905 151.285 373.065C164.792 393.325 171.545 413.206 171.545 432.707C171.545 447.315 168.055 459.664 161.074 469.756C155.989 475.751 151.816 478.748 148.553 478.748C147.718 478.748 147.111 478.35 146.732 477.553L146.732 477.269C154.32 463.534 158.114 447.694 158.114 429.748L158.114 426.163C158.114 414.97 155.307 402.602 149.691 389.057C146.618 382.683 142.976 376.46 138.764 370.39C127.648 356.2 118.694 348.119 111.902 346.146C111.333 346.412 110.65 347.948 109.854 350.756C108.488 352.349 107.198 353.146 105.984 353.146L105.301 353.26C104.883 353.412 104.523 353.431 104.22 353.317C101.791 353.734 98.7181 353.62 95 352.975C91.4335 351.837 88.2465 349.105 85.4389 344.78L83.9023 340.91ZM95.7967 304.398L95.7967 307.699C95.7967 310.469 95.3224 313.295 94.3739 316.179C93.2357 319.783 91.6991 322.06 89.7641 323.008C93.7859 327.22 95.7967 332.304 95.7967 338.26L95.7967 339.626L83.3332 339.626L83.3332 333.594C83.3332 330.179 82.8779 327.884 81.9674 326.707C80.7912 325.228 78.4009 323.426 74.7966 321.301C71.4578 319.328 69.0106 317.469 67.4551 315.724L67.9104 315.098C69.39 315.705 71.6285 316.577 74.6258 317.716C76.7885 318.512 79.027 318.911 81.3413 318.911C82.6693 318.911 83.3332 317.317 83.3332 314.13L83.3332 304.398L95.7967 304.398ZM105.756 317.602C106.249 317.602 107.293 318.702 108.886 320.903C110.518 323.103 111.333 324.526 111.333 325.171C108.943 327.561 106.401 329.287 103.707 330.35C101.696 328.073 99.5339 325.455 97.2195 322.496C97.7506 322.42 99.1545 321.585 101.431 319.992C103.707 318.398 105.149 317.602 105.756 317.602ZM23.9751 281.431C26.1377 282.152 30.0646 282.835 35.7557 283.48C39.6636 283.822 45.5444 284.334 53.3981 285.017C66.1082 286.193 76.7126 289.38 85.2113 294.578C92.2682 298.903 95.7967 303.171 95.7967 307.383L95.7967 311.196L83.3332 311.196L83.3332 307.383C83.3332 300.288 79.8616 295.526 72.9185 293.098C68.8209 291.656 62.3521 290.936 53.5119 290.936C48.0484 290.936 41.8641 289.873 34.9589 287.749C29.6852 286.155 25.8342 284.277 23.406 282.114L23.9751 281.431ZM95.7967 264.782L95.7967 269.334C95.7967 273.508 94.4119 276.695 91.6422 278.895C89.1381 280.906 85.7424 281.912 81.4552 281.912C72.4632 281.912 62.0485 281.153 50.2111 279.635C36.8939 277.89 26.8965 275.765 20.219 273.261L20.4466 271.497C35.5849 274.456 48.978 275.936 60.6258 275.936C75.7641 275.936 83.3332 273.736 83.3332 269.334L83.3332 264.782L95.7967 264.782ZM63.5282 231.969C65.1217 231.969 67.6258 232.69 71.0405 234.132C79.5771 237.736 85.7994 242.289 89.7072 247.79C93.7669 253.481 95.7967 260.88 95.7967 269.985L95.7967 271.465L83.3332 271.465L83.3332 266.514C83.3332 263.782 79.3115 261.961 71.2681 261.05C66.3738 260.785 59.0322 260.292 49.2436 259.571C47.8777 259.457 45.1839 258.433 41.1622 256.498C39.2652 255.663 37.3871 254.809 35.528 253.937C33.7828 253.064 32.7773 252.362 32.5118 251.831C32.6635 250.996 33.1188 250.579 33.8776 250.579C34.257 250.579 35.2814 250.882 36.9508 251.489C38.734 252.096 39.9291 252.438 40.5362 252.514L55.9021 254.05C64.0973 254.923 69.0296 255.72 70.699 256.441C66.6014 252.647 63.8317 249.896 62.39 248.189C59.203 244.395 57.6095 241.018 57.6095 238.058C57.6095 233.999 59.5824 231.969 63.5282 231.969ZM70.9266 240.961C68.9158 240.961 67.9104 242.384 67.9104 245.229C67.9104 247.544 72.1787 252.495 80.7153 260.083C80.943 259.4 81.0568 258.888 81.0568 258.546C81.0568 254.638 79.653 250.636 76.8454 246.538C74.3033 242.82 72.3304 240.961 70.9266 240.961ZM95.7967 181.311L95.7967 184.271C95.7967 187.951 94.9051 190.797 93.1219 192.807C91.6043 194.553 89.0053 196.108 85.3251 197.474C86.3115 198.233 88.9674 199.656 93.2926 201.742C94.8102 202.463 96.1192 204.095 97.2195 206.637C97.3333 206.94 98.0352 209.008 99.3252 212.84C100.881 217.507 101.659 220.106 101.659 220.637C101.659 220.94 101.412 221.301 100.919 221.718C100.008 221.301 98.2628 219.195 95.6829 215.401C92.4579 210.696 89.5744 207.054 87.0324 204.474C82.7451 200.073 78.0215 196.829 72.8616 194.742C70.0919 193.718 67.3223 192.675 64.5526 191.612C60.3791 189.943 58.0458 188.691 57.5526 187.856L58.7477 187.515C60.6447 187.515 63.3954 188.122 66.9998 189.336C70.5662 190.512 72.8426 191.1 73.8291 191.1C76.1814 191.1 78.2681 190.55 80.0893 189.45C82.2519 188.16 83.3332 186.414 83.3332 184.214L83.3332 181.311L95.7967 181.311ZM57.1542 165.515C58.1786 165.515 64.0594 167.147 74.7966 170.41C81.1327 172.345 86.3874 175.304 90.5609 179.288C94.0514 182.626 95.7967 185.206 95.7967 187.028L83.3332 187.028L83.3332 185.32C83.3332 181.526 82.3278 178.832 80.3169 177.239C79.634 177.125 77.1299 176.746 72.8047 176.101C70.718 175.797 67.6827 174.431 63.6989 172.003C60.1705 169.84 57.4198 167.83 55.4469 165.971C55.9401 165.667 56.5092 165.515 57.1542 165.515ZM100.634 160.962C101.962 160.962 103.954 162.082 106.61 164.32C109.266 166.559 110.594 168.323 110.594 169.613C109.607 171.206 108.678 173.065 107.805 175.19C107.805 175.456 108.905 176.499 111.106 178.32C113.306 180.103 114.407 181.507 114.407 182.532C114.407 183.442 113.875 184.979 112.813 187.141C111.713 189.456 110.802 190.613 110.081 190.613C106.629 187.957 104.827 186.572 104.675 186.458C101.905 184.22 100.52 182.816 100.52 182.247C102.797 178.339 103.935 176.063 103.935 175.418C103.935 174.887 102.645 173.54 100.065 171.377C97.4471 169.214 96.1382 167.849 96.1382 167.279C98.3387 163.068 99.8374 160.962 100.634 160.962ZM70.9266 115.459C72.2166 115.459 73.886 116.825 75.9348 119.556C76.0865 119.784 77.3955 121.776 79.8616 125.532C77.3955 127.657 75.783 129.098 75.0242 129.857C72.7478 132.096 71.6096 133.708 71.6096 134.695L70.9266 134.695L61.081 124.28C65.0269 118.399 68.3087 115.459 70.9266 115.459ZM95.7967 104.475L95.7967 107.719C95.7967 114.776 96.6883 120.296 98.4715 124.28C99.8753 127.391 102.304 130.73 105.756 134.296C108.791 137.142 111.827 140.006 114.862 142.89C122.26 149.947 127.989 156.435 132.049 162.353C135.312 167.096 137.968 173.166 140.016 180.565C140.813 183.448 141.212 185.231 141.212 185.914C141.212 186.294 140.927 186.616 140.358 186.882C139.903 186.351 139.03 184.947 137.74 182.67C135.426 178.649 131.726 172.73 126.642 164.914C120.496 156.605 114.843 150.155 109.683 145.565L97.0487 134.524C92.1165 129.895 88.6828 125.589 86.7479 121.605C84.4714 116.9 83.3332 112.215 83.3332 107.548L83.3332 104.475L95.7967 104.475ZM57.1542 89.1909C58.1786 89.1909 64.0594 90.8223 74.7966 94.0852C81.1326 96.0202 86.3874 98.9795 90.5609 102.963C94.0514 106.302 95.7967 108.882 95.7967 110.703L83.3332 110.703L83.3332 108.996C83.3332 105.202 82.3278 102.508 80.3169 100.915C79.634 100.801 77.1299 100.421 72.8047 99.7763C70.718 99.4728 67.6827 98.1069 63.6989 95.6787C60.1705 93.5161 57.4198 91.5052 55.4469 89.6461C55.9401 89.3426 56.5092 89.1909 57.1542 89.1909ZM100.634 84.638C101.962 84.638 103.954 85.7572 106.61 87.9957C109.266 90.2342 110.594 91.9985 110.594 93.2884C109.607 94.8819 108.678 96.741 107.805 98.8657C107.805 99.1313 108.905 100.175 111.106 101.996C113.306 103.779 114.407 105.183 114.407 106.207C114.407 107.118 113.875 108.654 112.813 110.817C111.713 113.131 110.802 114.289 110.081 114.289C106.629 111.633 104.827 110.248 104.675 110.134C101.905 107.896 100.52 106.492 100.52 105.923C102.797 102.015 103.935 99.7383 103.935 99.0934C103.935 98.5622 102.645 97.2153 100.065 95.0527C97.4471 92.8901 96.1382 91.5242 96.1382 90.9551C98.3387 86.7437 99.8374 84.638 100.634 84.638ZM38.2597 -17.6947C42.8126 -17.6947 45.8858 -16.4426 47.4793 -13.9386C48.1623 -12.8383 49.1108 -9.53744 50.3249 -4.03605C50.5146 -3.12548 52.2978 -1.03875 55.6745 2.22415C59.5824 6.01821 63.1109 7.91524 66.2599 7.91524C67.5878 7.91524 68.8019 6.83393 69.9022 4.67132C71.8372 0.915196 72.8995 -1.09566 73.0892 -1.36124C74.6827 -3.52386 76.7126 -4.60516 79.1787 -4.60516C87.7912 -4.60516 96.897 -1.56992 106.496 4.50058C120.079 13.0752 126.87 23.5088 126.87 35.8016C126.87 41.5686 124.556 46.5957 119.927 50.883C115.412 55.1323 110.252 57.257 104.447 57.257C97.3143 57.257 89.821 56.0429 81.9673 53.6147C78.363 52.5144 73.5635 50.7312 67.5689 48.2651C59.7531 45.0401 55.8452 42.8775 55.8452 41.7772C55.8452 40.9046 56.3574 40.4683 57.3818 40.4683C57.6474 40.4683 58.4252 40.7528 59.7152 41.322C73.1082 47.3924 82.6882 50.4277 88.4552 50.4277C95.588 50.4277 101.165 48.3979 105.187 44.3382C109.247 40.2786 111.276 34.6823 111.276 27.5495C111.276 23.0725 109.304 17.8936 105.358 12.0128C101.146 5.6388 96.9539 2.45179 92.7804 2.45179C91.6043 2.45179 89.7641 4.44367 87.2601 8.42744C84.718 12.3733 82.2898 14.3462 79.9755 14.3462C75.9917 14.3462 71.3629 13.4166 66.0892 11.5575C61.1569 9.81227 56.9455 7.74451 53.455 5.35425C49.7368 2.81223 46.0186 -0.279932 42.3004 -3.92223C37.5578 -8.55099 35.1866 -12.0415 35.1866 -14.3938C35.1866 -16.5944 36.211 -17.6947 38.2597 -17.6947ZM134.268 11.0453C135.71 11.0453 137.911 12.3163 140.87 14.8584C143.83 17.3624 145.309 19.2974 145.309 20.6633C143.26 24.3056 142.236 26.3923 142.236 26.9235C142.236 27.227 143.469 28.3652 145.935 30.3381C148.401 32.2731 149.634 33.8666 149.634 35.1187C149.634 36.1431 149.046 37.8504 147.87 40.2406C146.656 42.8206 145.651 44.1106 144.854 44.1106C141.705 41.6824 139.713 40.1268 138.878 39.4439C135.767 36.9019 134.193 35.3084 134.155 34.6634C136.659 30.1864 137.911 27.6823 137.911 27.1511C137.911 26.62 136.469 25.1592 133.586 22.769C130.74 20.3408 129.317 18.8042 129.317 18.1592C131.29 13.4166 132.941 11.0453 134.268 11.0453ZM18.1702 -56.5398C24.8857 -56.0466 35.1296 -55.5344 48.9021 -55.0032C67.3792 -54.8135 81.2844 -51.8731 90.6178 -46.182C97.0677 -42.2362 100.293 -36.3554 100.293 -28.5396C100.293 -26.7185 99.8753 -24.6697 99.0406 -22.3932C98.2059 -20.1547 97.4661 -19.0355 96.8211 -19.0355C96.4037 -19.0355 95.9864 -19.7564 95.569 -21.1981C95.3035 -22.3363 95.0189 -23.4746 94.7154 -24.6128C86.3305 -26.8513 78.5337 -27.9705 71.325 -27.9705C70.4524 -27.9705 69.1244 -27.9326 67.3412 -27.8567C65.5201 -27.8188 64.1732 -27.7998 63.3006 -27.7998C51.9943 -27.7998 41.295 -30.4746 31.2028 -35.8242C31.2028 -36.3174 31.5443 -36.7727 32.2272 -37.1901C38.4495 -35.6725 48.7314 -34.9136 63.0729 -34.9136C69.2952 -34.9136 75.1001 -34.2307 80.4877 -32.8649C84.7749 -31.6128 89.0812 -30.3608 93.4064 -29.1087C92.42 -32.0302 91.6232 -34.041 91.0162 -35.1413C89.878 -37.228 88.2086 -39.2009 86.008 -41.06C82.3278 -44.1332 76.5798 -46.1251 68.764 -47.0357C64.8561 -47.453 57.6853 -47.6617 47.2517 -47.6617C42.6229 -47.6617 37.4251 -48.4015 31.6581 -49.8812C25.4738 -51.4368 20.6553 -53.3907 17.2027 -55.743L18.1702 -56.5398ZM95.7967 -81.1003L95.7967 -79.6206C95.7967 -77.9133 97.3523 -76.5284 100.463 -75.4661C108.81 -72.6205 114.615 -69.3197 117.878 -65.5636C119.851 -63.2871 121.938 -59.4172 124.138 -53.9538C126.073 -49.0594 127.041 -45.8724 127.041 -44.3927C127.041 -43.8236 126.832 -43.4063 126.415 -43.1407C126.035 -43.3304 124.461 -45.3412 121.691 -49.1732C118.125 -54.1055 115.222 -57.8996 112.984 -60.5554C106.61 -68.1435 101.753 -71.9376 98.4146 -71.9376C97.7696 -71.9376 97.4471 -71.5392 97.4471 -70.7425C97.4471 -68.2384 96.8401 -65.4877 95.626 -62.4904C94.336 -59.3793 93.065 -57.8237 91.8129 -57.8237C90.0297 -57.8237 86.2167 -59.2844 80.3738 -62.2058C74.3033 -65.2031 71.2681 -67.3468 71.2681 -68.6368C71.2681 -70.8753 72.615 -72.9241 75.3088 -74.7831C77.5852 -76.3008 80.26 -77.4011 83.3332 -78.084L83.3332 -81.1003L95.7967 -81.1003ZM71.7803 -110.783C73.0323 -110.783 74.9673 -109.72 77.5852 -107.596C80.2031 -105.509 81.512 -103.878 81.512 -102.701C79.9944 -99.2108 79.2356 -96.9344 79.2356 -95.8721C79.2356 -93.4059 81.2275 -90.807 85.2113 -88.0753L92.8373 -83.2948C94.9999 -81.4736 95.9864 -78.8178 95.7967 -75.3272L83.3332 -75.3272L83.3332 -77.1484C83.3332 -80.6389 82.9158 -83.1809 82.0812 -84.7744C81.2085 -86.3679 78.7044 -88.6634 74.5689 -91.6607C70.4334 -94.658 67.2653 -97.9967 65.0648 -101.677C63.8886 -102.474 62.5417 -103.783 61.0241 -105.604C61.9726 -106.249 63.7938 -107.235 66.4876 -108.563C69.371 -110.043 71.1353 -110.783 71.7803 -110.783Z" fill="black"/>
</mask>
<g mask="url(#mask0_296_5387)">
<rect x="10" width="183" height="489" fill="black"/>
</g>
</svg>
