<svg width="29" height="29" viewBox="0 0 29 29" fill="none" xmlns="http://www.w3.org/2000/svg">
<path d="M15.0211 27.1618C15.8432 24.2556 17.393 21.6112 19.5216 19.4828C21.6502 17.3544 24.2862 15.8135 27.1762 15.0081L29 14.5L27.1762 13.9919C24.2862 13.1865 21.6502 11.6456 19.5216 9.5172C17.393 7.3888 15.8432 4.74444 15.0211 1.83819L14.5 0L13.9789 1.83819C13.1568 4.74444 11.607 7.3888 9.4784 9.5172C7.34977 11.6456 4.71383 13.1865 1.82383 13.9919L0 14.5L1.82383 15.0081C4.71383 15.8135 7.34977 17.3544 9.4784 19.4828C11.607 21.6112 13.1568 24.2556 13.9789 27.1618L14.5 29L15.0211 27.1618Z" fill="#FFC300"/>
</svg>
